<svg width="27" height="27" viewBox="0 0 27 27" fill="none" xmlns="http://www.w3.org/2000/svg">
<path d="M22.5 8.47266C21.8438 8.76562 21.1348 8.96484 20.373 9.07031C21.1699 8.60156 21.7148 7.91602 22.0078 7.01367C21.2461 7.45898 20.4609 7.75781 19.6523 7.91016C18.9375 7.13672 18.041 6.75 16.9629 6.75C15.9434 6.75 15.0732 7.11035 14.3525 7.83105C13.6318 8.55176 13.2715 9.42188 13.2715 10.4414C13.2715 10.7812 13.3008 11.0625 13.3594 11.2852C11.8477 11.2031 10.4297 10.8223 9.10547 10.1426C7.78125 9.46289 6.65625 8.55469 5.73047 7.41797C5.39062 8.00391 5.2207 8.625 5.2207 9.28125C5.2207 10.6172 5.75391 11.6426 6.82031 12.3574C6.26953 12.3457 5.68359 12.1934 5.0625 11.9004V11.9355C5.0625 12.8145 5.35547 13.5967 5.94141 14.2822C6.52734 14.9678 7.24805 15.3926 8.10352 15.5566C7.76367 15.6504 7.46484 15.6973 7.20703 15.6973C7.05469 15.6973 6.82617 15.6738 6.52148 15.627C6.76758 16.3652 7.2041 16.9746 7.83105 17.4551C8.45801 17.9355 9.16992 18.1816 9.9668 18.1934C8.60742 19.248 7.07812 19.7754 5.37891 19.7754C5.07422 19.7754 4.78125 19.7578 4.5 19.7227C6.23438 20.8242 8.12109 21.375 10.1602 21.375C11.4727 21.375 12.7031 21.167 13.8516 20.751C15 20.335 15.9844 19.7783 16.8047 19.0811C17.625 18.3838 18.3311 17.5811 18.9229 16.6729C19.5146 15.7646 19.9541 14.8154 20.2412 13.8252C20.5283 12.835 20.6719 11.8477 20.6719 10.8633C20.6719 10.6523 20.666 10.4941 20.6543 10.3887C21.3926 9.86133 22.0078 9.22266 22.5 8.47266ZM27 5.0625V21.9375C27 23.332 26.5049 24.5244 25.5146 25.5146C24.5244 26.5049 23.332 27 21.9375 27H5.0625C3.66797 27 2.47559 26.5049 1.48535 25.5146C0.495117 24.5244 0 23.332 0 21.9375V5.0625C0 3.66797 0.495117 2.47559 1.48535 1.48535C2.47559 0.495117 3.66797 0 5.0625 0H21.9375C23.332 0 24.5244 0.495117 25.5146 1.48535C26.5049 2.47559 27 3.66797 27 5.0625Z" fill="white"/>
</svg>
